<?xml version="1.0" encoding="utf-8"?>
<!-- Generator: Adobe Illustrator 21.1.0, SVG Export Plug-In . SVG Version: 6.00 Build 0)  -->
<svg version="1.1" id="Layer_1" xmlns="http://www.w3.org/2000/svg" xmlns:xlink="http://www.w3.org/1999/xlink" x="0px" y="0px"
	 viewBox="0 0 38.1 37.7" style="enable-background:new 0 0 38.1 37.7;" xml:space="preserve">
<style type="text/css">
	.st0{fill:#00E09B;}
</style>
<title>logo</title>
<g>
	<rect x="23.3" y="27.2" class="st0" width="9.6" height="5.2"/>
	<path class="st0" d="M17.4,5.2v7.3c-1.2-1.1-2.7-1.6-4.9-1.6c-3.4,0-6.3,2.4-7,5.7c-0.1,0.8-0.2,1.5-0.2,2.3c0,0.7,0,1.4,0.1,2.2
		c0.2,2.1,1.2,4,2.7,5.5c1.1,0.9,2.5,1.5,3.9,1.7c1.9,0.2,4.2-0.2,5.4-1.1h5.9v-22H17.4z M17.2,19.9c0,2.1-1.3,3.4-3.1,3.4
		c-2,0-3.2-1.7-3.2-3.5v-0.3c0-2.3,1.3-3.3,3.2-3.3c2.1,0,3.1,1.7,3.1,3.6L17.2,19.9z"/>
</g>
</svg>
